<?xml version="1.0" encoding="utf-8"?>
<!-- Generator: Adobe Illustrator 19.2.1, SVG Export Plug-In . SVG Version: 6.00 Build 0)  -->
<svg version="1.1" id="Capa_1" xmlns="http://www.w3.org/2000/svg" xmlns:xlink="http://www.w3.org/1999/xlink" x="0px" y="0px"
	 viewBox="0 0 250 250" style="enable-background:new 0 0 250 250;" xml:space="preserve">
<style type="text/css">
	.st0{fill:#FAEB15;}
	.st1{fill:#704790;}
</style>
<g>
	<g>
		<g>
			<circle class="st0" cx="125" cy="125" r="121.6"/>
			<g>
				<g>
					<g>
						<g>
							<path class="st1" d="M86.9,136.9h-38l4.5-22.1l47.2-44.3h23.6l-9.5,46.2h10.7l-3.8,20.2h-10.8l-3.7,16.4H83.4L86.9,136.9z
								 M91.8,116.7l5.1-23.6h-0.2l-23.8,23.6H91.8z"/>
						</g>
					</g>
					<g>
						<g>
							<path class="st1" d="M186.6,145.2l-0.2-0.2c-5.5,7.4-13.9,10.5-23,10.5c-29.8,0-34.5-25.2-34.5-35.8
								c0-26.7,15.2-53.2,48.6-53.2c19.1,0,35,9.6,35.3,31.8h-24.8c-0.7-7.9-5.4-10.6-12-10.6c-14.4,0-20.8,15.4-20.8,30
								c0,10,4.3,16.7,14.9,16.7c7,0,13-2.5,15.6-9.4h-11.9l3.8-18.2h34.8l-9.8,46.8h-16.6L186.6,145.2z"/>
						</g>
					</g>
					<g>
						<g>
							<path class="st1" d="M147.8,160h4.1l-4.2,20.1h11.9l-0.7,3.6h-16.1L147.8,160z"/>
						</g>
						<g>
							<path class="st1" d="M159.3,160h19.5l-0.8,3.6h-7.5l-4.2,20.1h-4.1l4.2-20.1h-7.8L159.3,160z"/>
						</g>
						<g>
							<path class="st1" d="M181.3,160h17.2l-0.7,3.6h-13.2l-1.3,6.2h12.2l-0.7,3.4h-12.2l-1.4,6.9h13.3l-0.7,3.6h-17.3L181.3,160z"
								/>
						</g>
					</g>
				</g>
				<g>
					<path class="st1" d="M84.9,73.8H40.7c-1.8,0-3.3-1.5-3.3-3.3c0-1.8,1.5-3.3,3.3-3.3h44.2c1.8,0,3.3,1.5,3.3,3.3
						C88.2,72.3,86.7,73.8,84.9,73.8z"/>
				</g>
				<g>
					<path class="st1" d="M76.5,84.5H49c-1.8,0-3.3-1.5-3.3-3.3s1.5-3.3,3.3-3.3h27.5c1.8,0,3.3,1.5,3.3,3.3S78.3,84.5,76.5,84.5z"
						/>
				</g>
				<g>
					<path class="st1" d="M134.6,171.7h-50c-1.8,0-3.3-1.5-3.3-3.3s1.5-3.3,3.3-3.3h50c1.8,0,3.3,1.5,3.3,3.3
						S136.4,171.7,134.6,171.7z"/>
				</g>
				<g>
					<path class="st1" d="M134.6,182.4h-31c-1.8,0-3.3-1.5-3.3-3.3s1.5-3.3,3.3-3.3h31c1.8,0,3.3,1.5,3.3,3.3
						S136.4,182.4,134.6,182.4z"/>
				</g>
			</g>
		</g>
	</g>
</g>
</svg>
