<?xml version="1.0" encoding="utf-8"?>
<!-- Generator: Adobe Illustrator 19.2.1, SVG Export Plug-In . SVG Version: 6.00 Build 0)  -->
<svg version="1.1" id="Capa_1" xmlns="http://www.w3.org/2000/svg" xmlns:xlink="http://www.w3.org/1999/xlink" x="0px" y="0px"
	 viewBox="0 0 630 370" style="enable-background:new 0 0 630 370;" xml:space="preserve">
<style type="text/css">
	.st0{fill:#1D1612;}
	.st1{fill:#E2D335;}
	.st2{fill:#AB391B;}
	.st3{fill:#704790;}
	.st4{fill:#FAEB15;}
	.st5{fill:#C43D27;}
</style>
<g>
	<path class="st0" d="M618.4,116.2c0,1.2-0.3,2.3-0.9,3.3c-0.6,1-1.4,1.9-2.4,2.5c-1,0.6-2.2,0.9-3.4,0.9c-1.2,0-2.3-0.3-3.3-0.9
		c-1.1-0.6-1.9-1.4-2.4-2.5c-0.6-1-0.9-2.1-0.9-3.3c0-1.2,0.3-2.3,0.9-3.3c0.6-1,1.4-1.9,2.4-2.4c1-0.6,2.1-0.9,3.3-0.9
		c1.2,0,2.3,0.3,3.4,0.9c1,0.6,1.9,1.4,2.4,2.4C618.1,113.9,618.4,115,618.4,116.2 M617.1,116.2c0-1.5-0.5-2.8-1.6-3.8
		c-1-1-2.3-1.6-3.8-1.6c-1.5,0-2.8,0.5-3.8,1.6c-1.1,1.1-1.6,2.3-1.6,3.8c0,1.5,0.5,2.7,1.6,3.8c1,1,2.3,1.6,3.8,1.6
		c1.5,0,2.8-0.5,3.8-1.6C616.6,119,617.1,117.7,617.1,116.2 M608.7,112.6h3.2c0.9,0,1.5,0.2,1.9,0.6c0.4,0.3,0.6,0.8,0.6,1.5
		c0,0.5-0.2,0.9-0.5,1.2c-0.3,0.4-0.8,0.6-1.5,0.8c0.3,0.1,0.5,0.2,0.6,0.3c0.2,0.2,0.4,0.4,0.6,0.7c0,0,0.4,0.7,1.2,2.1h-2.1
		c-0.7-1.4-1.1-2.2-1.4-2.4c-0.2-0.3-0.5-0.4-0.7-0.4c0,0-0.1,0-0.2,0v2.8h-1.8V112.6z M610.5,115.7h0.7c0.5,0,0.9-0.1,1.1-0.3
		c0.2-0.2,0.3-0.4,0.3-0.6c0-0.3-0.1-0.5-0.3-0.6c-0.2-0.2-0.5-0.3-1-0.3h-0.8V115.7z"/>
	<g>
		<path class="st0" d="M399.4,317.5c-0.9-1.1-1.9-1.9-3.1-2.6c-1.2-0.7-2.6-1-4.1-1c-0.3,0-0.7,0-1.1,0c-0.4,0-0.8,0.1-1.2,0.2
			c-0.2,0-0.4,0.1-0.6,0.1v-0.1c0-0.3-0.1-0.8-0.7-1.1c-0.8-0.5-1.9-0.5-3,0.3c-0.6,0.4-0.9,1.1-1.1,2c-0.5,2.6-1.1,5.5-1.7,8.7
			c-0.6,3.2-1.2,6.5-1.8,9.8c-0.6,3.4-1,6.6-1.5,9.7c-0.4,3.1-0.6,5.8-0.6,8.2c0,0.7,0,1.7,0.1,2.8c0.1,1.1,0.2,2.3,0.4,3.5
			c0.2,1.2,0.4,2.3,0.7,3.3c0.3,1.1,0.7,1.9,1.2,2.4c0.2,0.2,0.4,0.4,0.7,0.6c0.3,0.2,0.7,0.3,1.1,0.3c0.6,0,1-0.2,1.3-0.6
			c0.3-0.4,0.5-0.8,0.5-1.4c0-0.8-0.2-1.3-0.7-1.6c0-0.1-0.1-0.3-0.2-0.9c-0.1-0.7-0.3-1.6-0.4-2.6c-0.1-1-0.3-2.1-0.4-3.3
			c-0.1-1.2-0.1-2.3-0.1-3.4c0-0.8,0-1.7,0.1-2.6c0.1-1,0.2-2,0.3-3c0.1-1,0.3-2,0.5-3c0.2-0.9,0.4-1.7,0.6-2.4c0.1,0,0.2,0,0.4,0
			h0.7c2,0,4-0.4,6-1c1.9-0.7,3.7-1.7,5.2-3c1.5-1.3,2.8-2.8,3.7-4.7c0.9-1.8,1.4-3.9,1.4-6.1c0-1.3-0.2-2.7-0.7-4
			C401,319.8,400.3,318.6,399.4,317.5 M386.1,336.1c-0.4,0-0.7-0.1-0.7-0.7c0-0.1,0-0.3,0-0.4c0-0.1,0.1-0.3,0.1-0.5
			c0.1-0.5,0.2-1.3,0.4-2.3c0.2-1,0.3-2,0.5-3.2c0.2-1.1,0.4-2.3,0.6-3.5c0.2-1.2,0.4-2.3,0.7-3.3c0.2-1,0.5-1.9,0.7-2.6
			c0.3-0.9,0.5-1.1,0.5-1.1c0.1,0,0.3-0.2,1.2-0.3c0.7-0.1,1.4-0.2,2.1-0.2c0.9,0,1.7,0.2,2.4,0.5c0.7,0.4,1.3,0.9,1.7,1.5
			c0.4,0.6,0.8,1.3,1,2.1c0.2,0.8,0.3,1.6,0.3,2.5c0,1.6-0.3,3.2-0.9,4.6c-0.6,1.4-1.5,2.7-2.5,3.7c-1.1,1-2.3,1.8-3.7,2.4
			C389.2,335.8,387.7,336.1,386.1,336.1"/>
		<path class="st0" d="M424.7,338.1c-0.8-0.9-1.5-1.9-2-2.9c-0.5-1.1-0.9-2.2-1.2-3.4c-0.3-1.2-0.5-2.4-0.6-3.6
			c-0.1-1.2-0.1-2.5-0.1-3.7l0.1-3.4c0-0.6-0.1-1.1-0.3-1.6c-0.2-0.4-0.6-0.9-1.5-0.9c-0.6,0-1,0.2-1.4,0.7
			c-0.3,0.4-0.5,0.9-0.7,1.5c-0.1,0.2-0.2,0.6-0.6,1.5c-0.3,0.8-0.8,1.7-1.4,2.8c-0.6,1.1-1.2,2.2-1.8,3.3c-0.7,1.1-1.3,2.2-2,3.2
			c-0.7,1-1.3,1.8-1.9,2.4c-0.7,0.7-1.1,0.8-1.3,0.8c-0.2,0-0.4-0.1-0.4-0.2c-0.2-0.2-0.3-0.4-0.3-0.6c-0.1-0.3-0.1-0.5-0.1-0.8
			c0-0.3,0-0.5,0-0.7c0-1.7,0.3-3.5,1-5.4c0.7-1.9,1.5-3.7,2.5-5.4c1-1.7,2.1-3,3.2-4.1c1.1-1.1,2.1-1.6,3-1.6
			c0.2,0,0.5,0.1,0.8,0.2c0.3,0.1,0.7,0.2,1,0.4c0.3,0.2,0.7,0.3,1,0.4c1.2,0.5,1.7,0,1.9-0.3c0.2-0.3,0.3-0.6,0.3-1
			c0-0.6-0.2-1.1-0.6-1.6c-0.4-0.4-0.8-0.8-1.3-1c-0.5-0.3-1-0.4-1.6-0.5c-0.5-0.1-1-0.2-1.4-0.2c-1.7,0-3.5,0.6-5.1,1.9
			c-1.6,1.2-3.1,2.8-4.4,4.7c-1.3,1.9-2.3,4.1-3.1,6.5c-0.8,2.4-1.2,4.7-1.2,7c0,0.7,0,1.5,0.1,2.2c0.1,0.8,0.3,1.5,0.6,2.1
			c0.3,0.6,0.8,1.2,1.4,1.6c0.6,0.4,1.4,0.6,2.4,0.6c1.1,0,2.2-0.4,3.2-1.1c0.9-0.7,1.8-1.5,2.7-2.6c0.8-1,1.6-2.1,2.3-3.3
			c0.5-0.8,1-1.6,1.4-2.4c0.1,0.8,0.3,1.6,0.5,2.4c0.3,1.2,0.6,2.3,1.1,3.4c0.5,1.1,1,2.1,1.7,3c0.7,0.9,1.6,1.6,2.6,2.2
			c0.2,0.1,0.4,0.2,0.6,0.2c0.2,0.1,0.5,0.1,0.7,0.1c0.3,0,0.6-0.1,0.9-0.2c0.3-0.2,0.5-0.5,0.5-0.9c0-0.3-0.1-0.7-0.4-1
			C425.1,338.6,424.9,338.3,424.7,338.1"/>
		<path class="st0" d="M446.5,317.3c0.3-0.2,0.7-0.5,0.7-1.2c0-0.6-0.2-1.1-0.6-1.5c-0.4-0.4-0.8-0.6-1.4-0.8
			c-0.5-0.2-1-0.3-1.5-0.4c-0.5-0.1-0.9-0.1-1.3-0.1c-2.1,0-3.9,0.6-5.5,1.8c-1.2,0.9-2.5,2.2-3.7,3.7c0-0.1,0-0.2,0-0.4
			c0-0.4,0.1-0.7,0.1-1.1c0-0.4,0.1-0.7,0.1-0.8c0-0.5-0.1-1-0.4-1.5c-0.3-0.6-0.8-0.9-1.5-0.9c-0.7,0-1.2,0.2-1.7,0.6
			c-0.5,0.4-0.7,0.9-0.8,1.4c0,0.1,0,0.3-0.1,0.8c0,0.5-0.1,1.1-0.2,1.9c-0.1,0.8-0.2,1.6-0.3,2.6c-0.1,1-0.3,2-0.4,3
			c-0.2,1-0.3,2-0.5,3.3c-0.2,1.2-0.4,2.5-0.5,3.7c-0.2,1.3-0.3,2.5-0.4,3.7c-0.1,1.2-0.1,2.3-0.1,3.2c0,0.6,0.1,1.1,0.3,1.6
			c0.2,0.4,0.6,0.9,1.6,0.9c0.7,0,1.2-0.2,1.5-0.6c0.3-0.4,0.4-0.8,0.5-1.5c0.1-0.7,0.2-1.6,0.3-2.5c0.1-1,0.2-2,0.4-3.1
			c0.2-1.1,0.5-2.2,0.8-3.4c0.3-1.2,0.7-2.4,1.2-3.5c0.4-0.9,0.9-1.9,1.5-2.9c0.6-1,1.3-2,2.1-2.9c0.8-0.9,1.7-1.6,2.7-2.2
			c1-0.6,2-0.9,3.1-0.9c0.5,0,0.9,0.1,1.3,0.2C444.8,317.6,445.7,317.7,446.5,317.3"/>
		<path class="st0" d="M466.3,338.1c-0.8-0.9-1.5-1.9-2-2.9c-0.5-1.1-0.9-2.2-1.2-3.4c-0.3-1.2-0.5-2.4-0.6-3.6
			c-0.1-1.2-0.1-2.5-0.1-3.7l0.1-3.4c0-0.6-0.1-1.1-0.3-1.6c-0.2-0.4-0.6-0.9-1.5-0.9c-0.6,0-1,0.2-1.4,0.7
			c-0.3,0.4-0.5,0.9-0.7,1.5c-0.1,0.2-0.2,0.6-0.6,1.5c-0.3,0.8-0.8,1.7-1.4,2.8c-0.6,1.1-1.2,2.2-1.8,3.3c-0.7,1.1-1.3,2.2-2,3.2
			c-0.7,1-1.3,1.8-1.9,2.4c-0.7,0.7-1.1,0.8-1.3,0.8c-0.2,0-0.4-0.1-0.4-0.2c-0.2-0.2-0.3-0.4-0.3-0.6c-0.1-0.3-0.1-0.5-0.1-0.8
			c0-0.3,0-0.5,0-0.7c0-1.7,0.3-3.5,1-5.4c0.7-1.9,1.5-3.7,2.5-5.4c1-1.7,2.1-3,3.2-4.1c1.1-1.1,2.1-1.6,3-1.6
			c0.2,0,0.5,0.1,0.8,0.2c0.3,0.1,0.7,0.2,1,0.4c0.3,0.2,0.7,0.3,1,0.4c1.2,0.5,1.7,0,1.9-0.3c0.2-0.3,0.3-0.6,0.3-1
			c0-0.6-0.2-1.1-0.6-1.6c-0.4-0.4-0.8-0.8-1.3-1c-0.5-0.3-1-0.4-1.6-0.5c-0.5-0.1-1-0.2-1.4-0.2c-1.7,0-3.5,0.6-5.1,1.9
			c-1.6,1.2-3.1,2.8-4.4,4.7c-1.3,1.9-2.3,4.1-3.1,6.5c-0.8,2.4-1.2,4.7-1.2,7c0,0.7,0,1.5,0.1,2.2c0.1,0.8,0.3,1.5,0.6,2.1
			c0.3,0.6,0.7,1.2,1.3,1.6c0.6,0.4,1.4,0.6,2.4,0.6c1.1,0,2.2-0.4,3.2-1.1c0.9-0.7,1.8-1.5,2.7-2.6c0.8-1,1.6-2.1,2.3-3.3
			c0.5-0.8,1-1.6,1.4-2.4c0.1,0.8,0.3,1.6,0.5,2.4c0.3,1.2,0.6,2.3,1.1,3.4c0.4,1.1,1,2.1,1.7,3c0.7,0.9,1.6,1.6,2.6,2.2
			c0.2,0.1,0.4,0.2,0.6,0.2c0.2,0.1,0.5,0.1,0.7,0.1c0.3,0,0.6-0.1,0.9-0.2c0.3-0.2,0.5-0.5,0.5-0.9c0-0.3-0.1-0.7-0.4-1
			C466.7,338.6,466.5,338.3,466.3,338.1"/>
		<path class="st0" d="M496.5,316.8c0.1-0.3,0.2-0.6,0.2-1c0-0.5-0.2-0.9-0.6-1.3c-0.3-0.3-0.8-0.5-1.3-0.7c-0.5-0.1-1-0.3-1.6-0.3
			c-0.5-0.1-1.1-0.1-1.6-0.1c-1.3,0-2.6,0.2-3.9,0.6c-1.3,0.4-2.5,0.9-3.5,1.7c-1,0.7-1.9,1.7-2.6,2.8c-0.7,1.1-1,2.5-1,4
			c0,1.1,0.3,2.1,0.8,2.9c0.5,0.8,1.1,1.5,1.9,2.1c0.7,0.6,1.5,1.1,2.3,1.6c0.8,0.5,1.6,0.9,2.3,1.4c0.7,0.4,1.3,0.9,1.7,1.5
			c0.4,0.5,0.6,1,0.6,1.6c0,0.7-0.3,1.5-1,2.2c-0.7,0.8-1.6,1.4-2.5,2c-1,0.6-2,1.1-3,1.4c-1,0.3-1.8,0.5-2.4,0.5h-0.7
			c-0.5,0-1.1,0.1-1.6,0.4c-0.4,0.2-0.9,0.7-0.9,1.8c0,0.7,0.3,1.2,0.9,1.4c0.5,0.2,1,0.3,1.5,0.3c1.3,0,2.8-0.3,4.3-0.8
			c1.6-0.5,3-1.2,4.4-2.1c1.4-0.9,2.6-1.9,3.5-3.1c1-1.2,1.5-2.5,1.5-3.9c0-1.2-0.3-2.2-0.8-3.1c-0.5-0.8-1.1-1.6-1.9-2.2
			c-0.7-0.6-1.5-1.2-2.4-1.7c-0.8-0.5-1.6-1-2.3-1.5c-0.7-0.5-1.3-0.9-1.7-1.4c-0.4-0.4-0.6-1-0.6-1.6c0-0.8,0.2-1.4,0.6-2
			c0.4-0.6,1-1.2,1.6-1.6c0.6-0.4,1.4-0.7,2.2-1c0.8-0.2,1.5-0.3,2.2-0.3c0.5,0,1.1,0.1,1.7,0.2c1.2,0.3,2.2,0.3,2.5,0.1
			C496,317.4,496.4,317.1,496.5,316.8"/>
		<path class="st0" d="M513.9,332.2c-0.3,0-0.5,0.1-0.9,0.2c-0.3,0.1-0.5,0.3-0.8,0.5c-1.4,1-2.7,1.8-4.1,2.4
			c-1.4,0.5-3,0.8-4.7,0.8c-1.3,0-2.1-0.3-2.5-0.8c-0.5-0.5-0.7-1.4-0.7-2.4c0-0.1,0-0.3,0-0.6c0-0.3,0-0.6,0.1-0.9
			c0-0.3,0.1-0.6,0.1-0.8c0,0,0-0.1,0-0.1c1.5,0,3-0.4,4.4-1.1c1.4-0.7,2.8-1.7,3.9-2.9c1.1-1.2,2.1-2.5,2.7-4c0.7-1.5,1-3,1-4.5
			c0-1.4-0.4-2.5-1.2-3.2c-0.8-0.7-1.7-1-2.8-1c-1,0-2.3,0.5-3.7,1.5c-1.4,1-2.8,2.3-4.1,4c-1.3,1.7-2.4,3.7-3.3,6
			c-0.9,2.3-1.4,4.8-1.4,7.5c0,2.3,0.6,4.1,1.7,5.3c1.2,1.3,2.9,1.9,5.1,1.9c1.8,0,3.6-0.3,5.3-1c1.7-0.6,3.3-1.5,4.7-2.6
			c0.4-0.3,0.7-0.6,1-0.9c0.2-0.3,0.5-0.6,0.7-0.9c0.2-0.4,0.3-0.7,0.3-1.1C514.9,332.3,514.2,332.2,513.9,332.2 M501.7,326.3
			c0.3-0.8,0.8-1.6,1.3-2.4c0.7-1,1.4-1.9,2.1-2.8c0.7-0.8,1.4-1.5,2-2.1c0.8-0.7,1-0.9,1-0.9c0.1-0.1,0.3-0.2,0.5-0.2
			c0,0,0,0.1,0,0.3c0,0.9-0.2,1.8-0.7,2.8c-0.5,1-1.1,1.9-1.9,2.6c-0.7,0.8-1.6,1.4-2.5,2C502.9,326,502.3,326.2,501.7,326.3"/>
		<path class="st0" d="M555.9,311c-0.6-0.4-1.5-0.4-2.5,0.1c-0.5,0.2-0.9,0.4-1.2,0.6c-1,0.8-2.2,1.9-3.3,3.2
			c-1.2,1.4-2.3,3-3.5,4.7c-0.7,1-1.4,2.1-2,3.2c-0.6,1.1-1.2,2.2-1.7,3.3c-0.5,1.1-1,2.1-1.5,3c-0.2,0.5-0.4,0.9-0.6,1.3
			c-0.4-2.2-0.7-4.5-1-7c-0.4-3-0.8-5.9-1.1-8.6c-0.1-0.7-0.3-1.2-0.6-1.7c-0.4-0.6-0.9-0.9-1.6-0.9c-0.6,0-1.1,0.3-1.4,0.8
			c-0.1,0.1-0.1,0.3-0.2,0.4c-0.2,0-0.4-0.1-0.6-0.1c-0.5-0.1-0.9-0.1-1.3-0.1c-2.1,0-3.9,0.6-5.5,1.8c-1.2,0.9-2.4,2.2-3.7,3.7
			c0-0.1,0-0.2,0-0.4c0-0.4,0.1-0.7,0.1-1.1c0-0.4,0.1-0.7,0.1-0.8c0-0.5-0.1-1-0.4-1.5c-0.3-0.6-0.8-0.9-1.5-0.9
			c-0.6,0-1.2,0.2-1.7,0.6c-0.5,0.4-0.7,0.9-0.8,1.4c0,0.1,0,0.4-0.1,0.8c0,0.5-0.1,1.1-0.2,1.9c-0.1,0.7-0.2,1.6-0.3,2.6
			c-0.1,1-0.3,2-0.4,3c-0.2,1-0.3,2-0.5,3.3c-0.2,1.2-0.3,2.5-0.5,3.7c-0.2,1.3-0.3,2.5-0.4,3.7c-0.1,1.2-0.2,2.2-0.2,3.2
			c0,0.6,0.1,1.1,0.3,1.6c0.2,0.4,0.6,0.9,1.6,0.9c0.7,0,1.2-0.2,1.5-0.6c0.3-0.4,0.4-0.8,0.5-1.5c0.1-0.7,0.2-1.6,0.3-2.5
			c0.1-1,0.3-2,0.5-3.1c0.2-1.1,0.4-2.2,0.8-3.4c0.3-1.2,0.7-2.4,1.2-3.5c0.4-0.9,0.9-1.9,1.5-2.9c0.6-1,1.3-2,2.1-2.9
			c0.8-0.9,1.7-1.6,2.7-2.3c1-0.6,2-0.9,3.1-0.9c0.5,0,1,0.1,1.3,0.2c0.1,0,0.2,0,0.2,0.1c0,0.3,0.1,0.6,0.1,1
			c0.2,1.8,0.4,3.8,0.7,6c0.3,2.2,0.6,4.6,0.9,7.1c0.3,2.5,0.7,4.8,1,6.9c0.1,0.4,0.3,0.7,0.5,1c0.2,0.3,0.6,0.6,1.3,0.6
			c0.5,0,1-0.1,1.4-0.3c0.5-0.2,0.9-0.8,1.2-1.6c0.8-2.4,1.9-4.9,3.1-7.4c1.2-2.6,2.7-5.1,4.2-7.6c1.1-1.7,2.3-3.4,3.5-4.9
			c1.3-1.5,2.6-2.9,4-4.1c0.2-0.2,0.4-0.5,0.7-0.8c0.3-0.3,0.4-0.7,0.4-1.1C556.5,311.7,556.3,311.3,555.9,311"/>
		<path class="st0" d="M560.8,307.6c-0.7,0-1.3,0.3-1.9,0.9c-0.5,0.6-0.8,1.4-0.8,2.2c0,0.8,0.2,1.5,0.5,2.2
			c0.3,0.7,0.9,1.1,1.7,1.1h0c0.7,0,1.3-0.3,1.9-0.9c0.5-0.6,0.8-1.3,0.8-2.2c0-0.8-0.1-1.6-0.4-2.2
			C562.2,307.9,561.6,307.6,560.8,307.6"/>
		<path class="st0" d="M560.1,317.6c-1.4,0-2.1,0.7-2.1,2v0.7c0,0.6-0.2,1.5-0.4,2.5c-0.2,1.1-0.4,2.3-0.6,3.7
			c-0.2,1.3-0.4,2.8-0.6,4.3c-0.2,1.5-0.3,3-0.3,4.5c0,0.5,0,1,0.1,1.7c0,0.7,0.2,1.4,0.3,2c0.2,0.7,0.4,1.3,0.7,1.8
			c0.4,0.6,0.9,0.9,1.6,0.9c0.2,0,0.5-0.1,0.8-0.2c0.4-0.2,0.6-0.5,0.6-1c0-0.4-0.1-0.7-0.2-1.1c-0.1-0.3-0.2-0.6-0.2-0.8
			c0-0.3,0-0.8,0.1-1.6c0.1-0.8,0.1-1.6,0.2-2.6c0.1-1,0.2-1.9,0.3-2.9c0.1-1,0.3-1.9,0.4-2.6l0.9-4.1c0.3-1.5,0.5-2.8,0.5-4
			C562.3,318.2,561.1,317.6,560.1,317.6"/>
		<path class="st0" d="M600.6,315.7c0-0.4-0.2-0.8-0.4-1.1c-0.3-0.4-0.8-0.6-1.4-0.6h-5.5c0.6-2,1.3-4,1.9-6c0.7-2.1,1.3-4.3,2-6.5
			c0.1-0.4,0.2-0.8,0.2-1.1c0-0.5-0.2-1-0.5-1.5c-0.4-0.5-1-0.8-1.8-0.8c-0.6,0-1.1,0.2-1.5,0.6c-0.3,0.4-0.6,0.8-0.8,1.4
			c-0.8,2.3-1.6,4.7-2.3,7.1c-0.7,2.3-1.3,4.6-1.9,6.8c-0.9,0-1.7,0.1-2.4,0.1l-2.1,0.1c-0.1,0-0.2,0-0.3,0
			c-0.3-0.2-0.6-0.4-0.9-0.5c-0.5-0.2-1-0.3-1.6-0.4c-0.5-0.1-0.9-0.1-1.3-0.1c-2.1,0-3.9,0.6-5.5,1.8c-1.2,0.9-2.5,2.2-3.7,3.7
			c0-0.1,0-0.2,0-0.4c0-0.4,0.1-0.7,0.1-1.1c0-0.4,0.1-0.7,0.1-0.8c0-0.5-0.1-1-0.4-1.5c-0.3-0.6-0.8-0.9-1.5-0.9
			c-0.6,0-1.2,0.2-1.7,0.6c-0.5,0.4-0.7,0.9-0.8,1.4c0,0.1,0,0.4-0.1,0.8c0,0.5-0.1,1.1-0.2,1.9c-0.1,0.8-0.2,1.6-0.3,2.6
			c-0.1,1-0.3,2-0.4,3.1c-0.2,1-0.3,2-0.5,3.3c-0.2,1.2-0.3,2.4-0.5,3.7c-0.2,1.3-0.3,2.5-0.4,3.7c-0.1,1.2-0.1,2.3-0.1,3.2
			c0,0.6,0.1,1.1,0.3,1.6c0.2,0.4,0.6,0.9,1.6,0.9c0.7,0,1.2-0.2,1.5-0.6c0.3-0.4,0.4-0.9,0.5-1.5c0.1-0.7,0.2-1.6,0.3-2.5
			c0.1-1,0.2-2,0.4-3.1c0.2-1.1,0.4-2.2,0.8-3.4c0.3-1.2,0.7-2.4,1.2-3.5c0.4-0.9,0.9-1.9,1.5-2.9c0.6-1,1.3-2,2.1-2.9
			c0.8-0.9,1.7-1.6,2.7-2.2c1-0.6,2-0.9,3.1-0.9c0.2,0,0.4,0,0.6,0c0.2,0.2,0.4,0.4,0.8,0.5c0.7,0.1,1.4,0.2,2.3,0.2h3.6
			c-0.8,2.5-1.3,4.9-1.7,7.2c-0.3,2.5-0.5,4.8-0.5,6.8c0,2.6,0.2,4.7,0.5,6.3c0.3,1.6,0.5,2.6,0.6,2.8c0,0.1,0,0.2,0.2,0.6l0.4,0.9
			c0.1,0.4,0.3,0.7,0.6,1.1c0.2,0.4,0.5,0.8,0.8,1.1c0.5,0.6,1,0.8,1.4,0.8c1,0,1.3-0.6,1.3-0.9c0.1-0.4,0.1-0.7,0.1-0.8
			c0-0.4-0.1-0.7-0.2-1.1c-0.1-0.3-0.2-0.7-0.4-1.1c-0.3-0.9-0.6-2.1-0.9-3.5c-0.3-1.4-0.4-3-0.4-4.9v-1.1c0-0.4,0-0.8,0.1-1.2
			c0-0.7,0.1-1.7,0.3-3c0.1-1.3,0.4-2.7,0.6-4.1c0.3-1.4,0.5-2.7,0.8-4c0.2-1.1,0.5-1.8,0.8-2.3c0.2,0,0.4,0,0.7-0.1
			c0.2,0,0.5-0.1,0.8-0.1h5.1C600.3,317.6,600.6,316.4,600.6,315.7"/>
		<path class="st0" d="M615.4,332.2c-0.2,0-0.5,0.1-0.8,0.2c-0.3,0.1-0.5,0.3-0.8,0.5c-1.4,1-2.7,1.8-4.1,2.4
			c-1.4,0.5-3,0.8-4.7,0.8c-1.3,0-2.1-0.3-2.5-0.8c-0.5-0.5-0.7-1.4-0.7-2.4c0-0.1,0-0.3,0-0.6c0-0.3,0-0.6,0.1-0.9
			c0-0.3,0.1-0.6,0.1-0.8c0,0,0-0.1,0-0.1c1.5,0,3-0.4,4.4-1.1c1.4-0.7,2.8-1.7,3.9-2.9c1.1-1.2,2.1-2.5,2.7-4c0.7-1.5,1-3,1-4.5
			c0-1.4-0.4-2.5-1.2-3.2c-0.8-0.7-1.7-1-2.8-1c-1,0-2.3,0.5-3.7,1.5c-1.4,1-2.8,2.3-4.1,4c-1.3,1.7-2.4,3.7-3.3,6
			c-0.9,2.3-1.4,4.8-1.4,7.5c0,2.3,0.6,4.1,1.7,5.3c1.2,1.3,2.9,1.9,5.1,1.9c1.8,0,3.6-0.3,5.3-1c1.7-0.6,3.3-1.5,4.7-2.6
			c0.4-0.3,0.7-0.6,1-0.9c0.3-0.3,0.5-0.6,0.7-0.9c0.2-0.4,0.3-0.7,0.3-1.1C616.3,332.3,615.6,332.2,615.4,332.2 M603.1,326.3
			c0.3-0.8,0.8-1.6,1.3-2.4c0.7-1,1.4-1.9,2.1-2.8c0.7-0.8,1.4-1.5,2-2.1c0.8-0.7,1-0.9,1-0.9c0.1-0.1,0.3-0.2,0.4-0.2
			c0,0,0,0.1,0,0.3c0,0.9-0.2,1.8-0.7,2.8c-0.5,1-1.1,1.9-1.9,2.6c-0.7,0.8-1.6,1.4-2.5,2C604.4,326,603.7,326.2,603.1,326.3"/>
	</g>
	<path class="st1" d="M626.2,138.6c0-73.7-59.8-133.5-133.5-133.5c-73.7,0-133.5,59.8-133.5,133.5c0,73.7,59.8,133.5,133.5,133.5
		C566.4,272.1,626.2,212.3,626.2,138.6"/>
	<path class="st0" d="M432.3,130.6c-1-3.8-2.6-7.3-4.8-10.3c-2.2-3-5.1-5.5-8.5-7.2c-3.5-1.8-7.5-2.7-12.1-2.7
		c-4.1,0-7.9,0.7-11.3,2.2c-3.4,1.5-6.4,3.5-8.8,6.1c-2.5,2.6-4.4,5.6-5.7,9.1c-1.4,3.5-2,7.3-2,11.3c0,4.2,0.6,8,1.9,11.5
		c1.3,3.5,3.1,6.5,5.5,9.1c2.4,2.6,5.4,4.5,8.8,5.9c3.4,1.4,7.3,2,11.5,2c6.1,0,11.4-1.4,15.7-4.2c2.2-1.4,4.2-3.3,5.8-5.7
		c1.6-2.3,3-5.1,4-8.3l0.4-1.1c0,0,0.2-0.5-0.4-0.5h-14c-0.7,0-0.8,0.4-0.8,0.4l-0.1,0.5c-0.2,0.6-0.5,1.2-1,1.9
		c-0.6,0.7-1.3,1.3-2.3,2c-1.8,1.3-4.1,1.9-6.7,1.9c-1.9,0-3.6-0.2-4.9-0.7c-1.4-0.5-2.5-1.2-3.4-2.1c-0.9-0.9-1.6-2.1-2.2-3.6
		c-0.4-1.2-0.7-2.7-0.9-4.3h36.8c0.6,0,0.6-0.7,0.6-0.7l0.1-0.5c0-0.9,0.1-1.8,0.1-2.7C433.4,136.7,433.1,133.6,432.3,130.6
		 M398.2,127.2c0.8-1,1.8-1.8,3.2-2.5c1.3-0.7,3-1,5.1-1c1.6,0,3,0.2,4.1,0.7c1.1,0.4,2,1,2.7,1.8c1.3,1.4,2.3,3.4,3,6.1H396
		c0.1-0.6,0.2-1.2,0.4-1.8C396.8,129.3,397.3,128.2,398.2,127.2"/>
	<path class="st0" d="M485.5,165.8l-19.8-28.4l17.8-25.4c0,0,0.2-0.3-0.4-0.3h-18c-0.5,0-0.7,0.3-0.7,0.3l-8.1,12.1l-8.2-12.1
		c0,0-0.3-0.4-0.9-0.4h-18.5c-0.5,0-0.3,0.4-0.3,0.4l1.3,1.8l16.5,23.9l-19.3,28.2c0,0-0.4,0.5,0.3,0.5h18.1c0.7,0,1-0.6,1-0.6
		l9.7-14.7l9.7,14.6c0,0,0.4,0.6,1,0.6h18.3C485.9,166.4,485.5,165.8,485.5,165.8"/>
	<path class="st0" d="M508.4,111.7h-20.8c-0.7,0-0.6,0.5-0.6,0.5l3,53.6c0,0,0.1,0.7,0.6,0.7h14.7c0.6,0,0.6-0.7,0.6-0.7l3-53.4
		C508.9,112.3,508.9,111.7,508.4,111.7"/>
	<path class="st0" d="M548,123.9c0,0,0.6,0,0.6-0.7v-11.1c0,0,0-0.5-0.6-0.5h-9.9v-15c0,0,0.1-0.6-0.6-0.6h-15.9
		c-0.6,0-0.6,0.6-0.6,0.6v15h-8c-0.7,0-0.6,0.5-0.6,0.5v11.2c0,0-0.1,0.6,0.5,0.6h8.1v29.3c0,2.7,0.5,5.1,1.5,7
		c1,1.8,2.4,3.3,4.1,4.2c1.7,1,3.6,1.6,5.7,1.9c2,0.3,4.2,0.5,6.5,0.5c1.4,0,2.9,0,4.4-0.1c1.5-0.1,2.9-0.2,4.2-0.4l0.6-0.1
		c0,0,0.5,0,0.5-0.7v-12.8c0-0.7-0.6-0.5-0.6-0.5l-1.1,0.2c-0.6,0.1-1.3,0.2-2,0.3c-0.7,0.1-1.4,0.1-2.2,0.1c-1.1,0-2.1-0.1-2.7-0.3
		c-0.7-0.2-1-0.4-1.2-0.5c-0.2-0.1-0.4-0.5-0.5-1.2c-0.2-0.6-0.3-1.5-0.3-2.7v-24.4H548z"/>
	<path class="st0" d="M604.1,127.3c-1.4-3.6-3.3-6.6-5.8-9.1c-2.5-2.5-5.5-4.5-9-5.8c-3.5-1.4-7.4-2.1-11.6-2.1
		c-4.2,0-8.1,0.7-11.6,2.1c-3.4,1.4-6.4,3.3-8.9,5.8c-2.5,2.5-4.4,5.6-5.8,9.1c-1.3,3.6-2,7.5-2,11.8c0,4.3,0.7,8.2,2,11.8
		c1.3,3.5,3.3,6.5,5.8,9.1c2.5,2.5,5.5,4.5,8.9,5.8c3.5,1.4,7.3,2,11.6,2c4.2,0,8.1-0.7,11.6-2c3.5-1.3,6.5-3.3,9-5.8
		c2.5-2.5,4.4-5.5,5.8-9.1c1.3-3.5,2-7.5,2-11.8C606.1,134.8,605.4,130.9,604.1,127.3 M583.1,153c-1.4,0.8-3.1,1.2-5.4,1.2
		c-2.3,0-4-0.4-5.4-1.2c-1.4-0.8-2.5-1.9-3.4-3.3c-0.9-1.4-1.5-3.1-1.9-4.9c-0.4-1.9-0.6-3.8-0.6-5.8c0-2,0.2-3.9,0.6-5.9
		c0.4-1.9,1-3.5,1.9-4.9c0.9-1.4,2-2.5,3.4-3.3c1.3-0.8,3.1-1.3,5.3-1.3c2.2,0,4,0.5,5.4,1.3c1.5,0.9,2.6,2,3.5,3.3
		c0.9,1.4,1.5,3,1.9,4.9c0.4,1.9,0.6,3.9,0.6,5.9c0,2-0.2,3.9-0.6,5.8c-0.4,1.8-1,3.4-1.9,4.9C585.7,151.1,584.6,152.2,583.1,153"/>
	<path class="st2" d="M508.1,179.4c0-5.6-4.6-10.2-10.2-10.2c-5.6,0-10.2,4.6-10.2,10.2c0,5.6,4.6,10.2,10.2,10.2
		C503.5,189.6,508.1,185,508.1,179.4"/>
	<path class="st0" d="M408.9,96.4l-8,10c0,0-0.5,0.6,0.1,0.6h9.4c0.8,0,1.2-0.4,1.2-0.4l13.4-10.2c0,0,0.5-0.4-0.1-0.4h-15.1
		C409.2,96,408.9,96.4,408.9,96.4"/>
	<path class="st0" d="M619.3,117c0,1.2-0.3,2.3-0.9,3.3c-0.6,1-1.4,1.9-2.5,2.4c-1,0.6-2.2,0.9-3.4,0.9c-1.2,0-2.3-0.3-3.3-0.9
		c-1-0.6-1.9-1.4-2.4-2.4c-0.6-1-0.9-2.1-0.9-3.3c0-1.2,0.3-2.3,0.9-3.4c0.6-1,1.4-1.9,2.4-2.4c1-0.6,2.1-0.9,3.3-0.9
		c1.2,0,2.3,0.3,3.4,0.9c1,0.6,1.9,1.4,2.5,2.4C619.1,114.7,619.3,115.8,619.3,117 M618.1,117c0-1.5-0.5-2.8-1.6-3.8
		c-1-1.1-2.3-1.6-3.8-1.6c-1.5,0-2.8,0.5-3.8,1.6c-1.1,1.1-1.6,2.3-1.6,3.8c0,1.5,0.5,2.7,1.6,3.8c1,1,2.3,1.6,3.8,1.6
		c1.5,0,2.8-0.5,3.8-1.6C617.5,119.8,618.1,118.5,618.1,117 M609.6,113.4h3.2c0.9,0,1.5,0.2,2,0.6c0.4,0.3,0.6,0.8,0.6,1.5
		c0,0.5-0.2,0.9-0.5,1.2c-0.3,0.3-0.8,0.6-1.5,0.8c0.3,0.1,0.5,0.2,0.6,0.3c0.2,0.2,0.4,0.4,0.6,0.7c0,0,0.4,0.7,1.2,2.1h-2.1
		c-0.7-1.4-1.1-2.2-1.4-2.4c-0.2-0.3-0.5-0.4-0.7-0.4c-0.1,0-0.1,0-0.2,0v2.8h-1.8V113.4z M611.4,116.5h0.7c0.5,0,0.9-0.1,1.1-0.3
		c0.2-0.2,0.3-0.4,0.3-0.6c0-0.3-0.1-0.5-0.3-0.6c-0.2-0.2-0.5-0.3-1-0.3h-0.8V116.5z"/>
	<path class="st0" d="M618.5,116.1c0,1.2-0.3,2.3-0.9,3.3c-0.6,1-1.4,1.9-2.5,2.5c-1,0.6-2.2,0.9-3.4,0.9c-1.2,0-2.3-0.3-3.3-0.9
		c-1.1-0.6-1.9-1.4-2.5-2.5c-0.6-1-0.9-2.2-0.9-3.3c0-1.2,0.3-2.3,0.9-3.4c0.6-1,1.4-1.9,2.5-2.4c1-0.6,2.1-0.9,3.3-0.9
		c1.2,0,2.3,0.3,3.4,0.9c1,0.6,1.9,1.4,2.5,2.4C618.2,113.8,618.5,114.9,618.5,116.1 M617.2,116.1c0-1.5-0.5-2.8-1.6-3.9
		c-1-1.1-2.3-1.6-3.8-1.6c-1.5,0-2.8,0.5-3.8,1.6c-1.1,1.1-1.6,2.3-1.6,3.9c0,1.5,0.5,2.7,1.6,3.8c1,1,2.3,1.6,3.8,1.6
		c1.5,0,2.8-0.5,3.8-1.6C616.7,118.9,617.2,117.6,617.2,116.1 M608.8,112.5h3.2c0.9,0,1.5,0.2,2,0.6c0.4,0.3,0.6,0.8,0.6,1.5
		c0,0.5-0.2,0.9-0.5,1.2c-0.3,0.4-0.8,0.6-1.5,0.8c0.3,0.1,0.5,0.2,0.6,0.3c0.2,0.2,0.4,0.4,0.6,0.7c0,0,0.4,0.7,1.2,2.1h-2.1
		c-0.7-1.4-1.1-2.2-1.4-2.4c-0.2-0.3-0.5-0.4-0.7-0.4c-0.1,0-0.1,0-0.2,0v2.8h-1.8V112.5z M610.6,115.6h0.7c0.5,0,0.9-0.1,1.1-0.3
		c0.2-0.2,0.3-0.4,0.3-0.6c0-0.3-0.1-0.5-0.3-0.6c-0.2-0.2-0.5-0.3-1-0.3h-0.8V115.6z"/>
	<path class="st3" d="M53.2,85.2c-27.4,0-49.7,22.3-49.7,49.7s22.3,49.8,49.7,49.8c27.5,0,49.8-22.3,49.8-49.8S80.7,85.2,53.2,85.2
		 M51.9,102.1c3.5,0,6.4,2.9,6.4,6.4c0,3.5-2.8,6.4-6.4,6.4c-3.5,0-6.4-2.8-6.4-6.4C45.5,105,48.4,102.1,51.9,102.1 M22.5,122.9
		c1.7,0,3.1,1.4,3.1,3.1c0,1.7-1.4,3.1-3.1,3.1c-1.8,0-3.2-1.4-3.2-3.1C19.3,124.3,20.7,122.9,22.5,122.9 M29.4,150.1
		c0,1.3-1.1,2.3-2.3,2.3H16.3c-1.3,0-2.3-1-2.3-2.3V144v-11v-8.4c0-1.1,0.9-1.9,1.9-1.9c1,0,1.9,0.8,1.9,1.9v6h9.3
		c1.3,0,2.3,1,2.3,2.3V150.1z M83.5,123.3c2.2,0,4,1.8,4,4c0,2.2-1.8,4-4,4c-2.3,0-4.1-1.8-4.1-4C79.4,125.1,81.2,123.3,83.5,123.3
		 M92.5,158.5c0,1.6-1.4,3-3,3H75.5c-1.6,0-3-1.4-3-3v-7.9v-14.2v-10.8c0-1.4,1.1-2.5,2.4-2.5c1.4,0,2.5,1.1,2.5,2.5v7.8h12
		c1.6,0,3,1.3,3,3V158.5z M66.1,157.8c0,2.6-2.2,4.7-4.7,4.7H39.5c-2.6,0-4.8-2.1-4.8-4.7v-12.4v-22.5v-17.1c0-2.1,1.8-3.9,3.9-3.9
		c2.1,0,3.9,1.8,3.9,3.9v12.4h19c2.6,0,4.7,2.1,4.7,4.7V157.8z"/>
	<path class="st3" d="M117.7,113.2h8.3v7.8h0.2c3.9-6,9.9-9.1,17.2-9.1c6.5,0,12.5,2.6,14.6,9.1c3.6-5.7,9.9-9.1,16.7-9.1
		c10.6,0,17.8,4.4,17.8,15.5v39.1h-8.8v-35c0-6.6-1.8-11.9-10.3-11.9c-8.5,0-13.9,5.4-13.9,13.6v33.2h-8.8v-35
		c0-6.9-2.2-11.9-10-11.9c-10.4,0-14.2,9.6-14.2,13.6v33.2h-8.8V113.2z"/>
	<path class="st3" d="M226.2,111.9c16.9,0,25.9,12.3,25.9,28c0,15.6-9,27.9-25.9,27.9s-25.9-12.3-25.9-27.9
		C200.3,124.2,209.3,111.9,226.2,111.9 M226.2,160c9.2,0,16.6-7.2,16.6-20.1c0-13-7.4-20.2-16.6-20.2c-9.2,0-16.6,7.2-16.6,20.2
		C209.6,152.8,217,160,226.2,160 M228.8,91.1H240l-13.5,14.8h-6.6L228.8,91.1z"/>
	<polygon class="st3" points="284,166.5 274.6,166.5 254.8,113.2 264.6,113.2 279.6,157.6 279.8,157.6 294.3,113.2 303.5,113.2 	"/>
	<path class="st3" d="M318.4,103.6h-8.8V92.8h8.8V103.6z M309.6,113.2h8.8v53.4h-8.8V113.2z"/>
	<rect x="330" y="92.8" class="st3" width="8.8" height="73.7"/>
	<path class="st4" d="M626.3,138.6c0-74-60-133.9-133.9-133.9c-73.9,0-133.9,59.9-133.9,133.9c0,73.9,59.9,133.9,133.9,133.9
		C566.4,272.5,626.3,212.5,626.3,138.6"/>
	<path class="st0" d="M431.9,130.6c-1-3.9-2.6-7.3-4.8-10.3c-2.2-3-5.1-5.5-8.6-7.3c-3.5-1.8-7.6-2.7-12.1-2.7
		c-4.1,0-7.9,0.7-11.3,2.2c-3.4,1.5-6.4,3.5-8.8,6.1c-2.5,2.6-4.4,5.6-5.7,9.1c-1.4,3.5-2,7.3-2,11.3c0,4.2,0.6,8,1.9,11.5
		c1.3,3.5,3.2,6.5,5.6,9.1c2.4,2.6,5.4,4.5,8.8,5.9c3.5,1.4,7.3,2,11.6,2c6.1,0,11.4-1.4,15.8-4.2c2.2-1.4,4.2-3.3,5.8-5.7
		c1.6-2.3,3-5.1,4-8.4l0.4-1.1c0,0,0.2-0.5-0.4-0.5h-14c-0.7,0-0.8,0.4-0.8,0.4l-0.1,0.5c-0.2,0.6-0.5,1.2-1,1.9
		c-0.5,0.7-1.3,1.3-2.3,2c-1.8,1.3-4.1,1.9-6.8,1.9c-1.9,0-3.6-0.2-5-0.7c-1.4-0.5-2.5-1.2-3.5-2.1c-0.9-0.9-1.6-2.1-2.2-3.6
		c-0.4-1.2-0.7-2.7-0.9-4.4h36.9c0.6,0,0.6-0.7,0.6-0.7l0.1-0.5c0-0.9,0.1-1.8,0.1-2.7C433,136.6,432.7,133.6,431.9,130.6
		 M397.7,127.1c0.8-1,1.8-1.8,3.2-2.5c1.3-0.7,3-1,5.1-1c1.6,0,3,0.2,4.2,0.7c1.1,0.4,2,1,2.7,1.8c1.3,1.4,2.3,3.4,3,6.2h-20.3
		c0.1-0.6,0.2-1.2,0.4-1.8C396.3,129.2,396.8,128.2,397.7,127.1"/>
	<path class="st0" d="M485.3,165.8l-19.8-28.5l17.9-25.5c0,0,0.2-0.3-0.4-0.3h-18.1c-0.6,0-0.7,0.3-0.7,0.3l-8.1,12.2l-8.2-12.1
		c0,0-0.3-0.4-0.9-0.4h-18.6c-0.5,0-0.3,0.4-0.3,0.4l1.3,1.8l16.6,23.9l-19.3,28.3c0,0-0.4,0.5,0.3,0.5h18.1c0.7,0,1-0.6,1-0.6
		l9.7-14.7l9.8,14.7c0,0,0.4,0.6,1,0.6H485C485.7,166.4,485.3,165.8,485.3,165.8"/>
	<path class="st0" d="M508.2,111.5h-20.9c-0.7,0-0.6,0.5-0.6,0.5l3,53.7c0,0,0.1,0.7,0.6,0.7h14.8c0.6,0,0.6-0.7,0.6-0.7l3-53.6
		C508.7,112.1,508.7,111.5,508.2,111.5"/>
	<path class="st0" d="M547.9,123.9c0,0,0.6,0,0.6-0.7v-11.1c0,0,0-0.5-0.6-0.5H538v-15c0,0,0.1-0.6-0.6-0.6h-15.9
		c-0.6,0-0.6,0.6-0.6,0.6v15h-8c-0.7,0-0.6,0.5-0.6,0.5v11.2c0,0-0.1,0.6,0.5,0.6h8.1v29.4c0,2.8,0.5,5.1,1.5,7
		c1,1.8,2.4,3.3,4.1,4.3c1.7,1,3.6,1.6,5.7,1.9c2,0.3,4.2,0.5,6.5,0.5c1.4,0,2.9,0,4.4-0.1c1.5-0.1,2.9-0.2,4.2-0.4l0.6-0.1
		c0,0,0.5,0,0.5-0.7v-12.8c0-0.7-0.6-0.5-0.6-0.5l-1.1,0.2c-0.6,0.1-1.3,0.2-2,0.3c-0.7,0.1-1.4,0.1-2.2,0.1c-1.1,0-2.1-0.1-2.7-0.3
		c-0.7-0.2-1-0.4-1.2-0.6c-0.2-0.1-0.4-0.5-0.5-1.2c-0.2-0.6-0.3-1.5-0.3-2.7v-24.4H547.9z"/>
	<path class="st0" d="M604.2,127.2c-1.4-3.6-3.3-6.6-5.8-9.2c-2.5-2.5-5.5-4.5-9-5.9c-3.5-1.4-7.4-2.1-11.6-2.1
		c-4.3,0-8.1,0.7-11.6,2.1c-3.5,1.4-6.5,3.3-8.9,5.9c-2.5,2.5-4.4,5.6-5.8,9.2c-1.3,3.6-2,7.5-2,11.8c0,4.3,0.7,8.2,2,11.8
		c1.3,3.5,3.3,6.6,5.8,9.1c2.5,2.5,5.5,4.5,8.9,5.8c3.5,1.4,7.4,2,11.6,2c4.2,0,8.1-0.7,11.6-2c3.5-1.3,6.5-3.3,9-5.8
		c2.5-2.5,4.4-5.6,5.8-9.1c1.3-3.6,2-7.5,2-11.8C606.2,134.8,605.5,130.8,604.2,127.2 M583.2,153.1c-1.4,0.8-3.2,1.2-5.4,1.2
		c-2.3,0-4-0.4-5.4-1.2c-1.4-0.8-2.5-1.9-3.4-3.3c-0.9-1.4-1.5-3.1-1.9-4.9c-0.4-1.9-0.6-3.8-0.6-5.8c0-2,0.2-3.9,0.6-5.9
		c0.4-1.9,1-3.5,1.9-4.9c0.9-1.4,2-2.5,3.5-3.3c1.3-0.8,3.1-1.3,5.3-1.3c2.2,0,4,0.5,5.4,1.3c1.5,0.9,2.6,2,3.5,3.3
		c0.9,1.4,1.5,3,1.9,4.9c0.4,1.9,0.6,3.9,0.6,5.9c0,2-0.2,3.9-0.6,5.8c-0.4,1.8-1,3.5-1.9,4.9C585.8,151.1,584.6,152.2,583.2,153.1"
		/>
	<path class="st5" d="M507.9,179.5c0-5.7-4.6-10.2-10.2-10.2c-5.7,0-10.2,4.6-10.2,10.2c0,5.6,4.6,10.2,10.2,10.2
		C503.3,189.7,507.9,185.2,507.9,179.5"/>
	<path class="st0" d="M619.5,116.9c0,1.2-0.3,2.3-0.9,3.3c-0.6,1-1.4,1.9-2.5,2.5c-1,0.6-2.2,0.9-3.4,0.9c-1.2,0-2.3-0.3-3.3-0.9
		c-1.1-0.6-1.9-1.4-2.4-2.5c-0.6-1-0.9-2.2-0.9-3.3c0-1.2,0.3-2.3,0.9-3.4c0.6-1,1.4-1.9,2.4-2.4c1-0.6,2.1-0.9,3.3-0.9
		c1.2,0,2.3,0.3,3.4,0.9c1,0.6,1.9,1.4,2.5,2.4C619.2,114.6,619.5,115.7,619.5,116.9 M618.2,116.9c0-1.5-0.5-2.8-1.6-3.9
		c-1-1.1-2.3-1.6-3.8-1.6c-1.5,0-2.8,0.5-3.8,1.6c-1.1,1.1-1.6,2.3-1.6,3.9c0,1.5,0.5,2.8,1.6,3.8c1,1,2.3,1.6,3.8,1.6
		c1.5,0,2.8-0.5,3.8-1.6C617.7,119.7,618.2,118.4,618.2,116.9 M609.8,113.3h3.2c0.9,0,1.5,0.2,2,0.6c0.4,0.3,0.6,0.8,0.6,1.5
		c0,0.5-0.2,0.9-0.5,1.3c-0.3,0.3-0.8,0.6-1.5,0.8c0.3,0.1,0.5,0.2,0.6,0.3c0.2,0.2,0.4,0.4,0.6,0.7c0,0,0.4,0.7,1.2,2.1h-2.1
		c-0.7-1.4-1.1-2.2-1.4-2.4c-0.2-0.3-0.5-0.4-0.7-0.4c-0.1,0-0.1,0-0.2,0v2.8h-1.8V113.3z M611.5,116.4h0.7c0.5,0,0.9-0.1,1.1-0.3
		c0.2-0.2,0.3-0.4,0.3-0.6c0-0.3-0.1-0.5-0.3-0.6c-0.2-0.2-0.5-0.3-1-0.3h-0.8V116.4z"/>
	<path class="st0" d="M408.5,96.3l-8,10.1c0,0-0.5,0.6,0.1,0.6h9.5c0.8,0,1.2-0.4,1.2-0.4l13.4-10.2c0,0,0.5-0.4-0.1-0.4h-15.1
		C408.7,95.9,408.5,96.3,408.5,96.3"/>
</g>
</svg>
